<svg xmlns="http://www.w3.org/2000/svg">
  <symbol fill="none" viewBox="0 0 16 17" id="plus">
    <path d="M16 7.4H9v-7H7v7H0v2h7v7h2v-7h7v-2Z" fill="#000"></path>
  </symbol>
  <symbol fill="none" viewBox="0 0 16 14" id="cart">
    <path d="m15.3 5-3.5.2L8.6.3C8.5.1 8.2 0 8 0c-.2 0-.5.1-.6.3L4.2 5.2H.7c-.4 0-.7.3-.7.7v.2l1.9 6.8c.2.7.7 1.1 1.4 1.1h9.4c.7 0 1.2-.4 1.4-1.1L16 6v-.2c0-.4-.3-.8-.7-.8ZM8 1.9l2.2 3.2H5.9L8 1.9Z" fill="#000"></path>
  </symbol>
  <symbol fill="none" viewBox="0 0 10 10" id="checkbox">
    <path d="M10 0 3.1 6.6 0 3.6v3.3L3.2 10 10 3.3V0Z" fill="#000"></path>
  </symbol>
  <symbol fill="none" viewBox="0 0 16 17" id="checkmark">
    <path d="m15.5 1-9.6 9.3L1.5 6v4.7L6 15l9.5-9.3V1Z" fill="#08AF00"></path>
  </symbol>
  <symbol fill="currentcolor" viewBox="0 0 11 11" id="close">
    <path d="m11 1-1-1-4.5 4.5L1 0 0 1l4.5 4.5L0 10l1 1 4.5-4.5L10 11l1-1-4.5-4.5L11 1Z"></path>
  </symbol>
  <symbol fill="none" viewBox="0 0 10 12" id="compare">
    <path d="M6 0H4v12h2V0ZM2 4H0v8h2V4ZM10 3H8v9h2V3Z" fill="#000"></path>
  </symbol>
  <symbol fill="none" viewBox="0 0 10 7" id="control-select">
    <path d="m5 5.83 3.84-4.5c.25-.3.25-.8 0-1.1a.56.56 0 0 0-.9 0l-3.44 4-3.44-4a.56.56 0 0 0-.9 0c-.08.2-.16.4-.16.6 0 .2.08.4.16.5l3.85 4.5c.33.3.66.3.98 0Z" fill="#000"></path>
  </symbol>
  <symbol fill="none" viewBox="0 0 47 31" id="delivery">
    <g clip-path="url(#b)" fill="#000">
      <path d="m46.7 15.4-6.5-8.2c-.3-.4-.7-.6-1.2-.6h-8.3V1.5C30.7.7 30 0 29.2 0H1.5C.7 0 0 .7 0 1.5S.7 3 1.5 3h26.2v21.7H15.8c-.6-1.9-2.4-3.3-4.5-3.3-2.6 0-4.8 2.2-4.8 4.8 0 2.6 2.2 4.8 4.8 4.8 2.1 0 3.9-1.4 4.5-3.3h13.4c.8 0 1.5-.7 1.5-1.5V9.6h7.6l5.7 7.3v7.9h-2.2c-.6-1.9-2.4-3.3-4.5-3.3-2.6 0-4.8 2.2-4.8 4.8 0 2.6 2.1 4.8 4.8 4.8 2.1 0 3.9-1.4 4.5-3.3h3.7c.8 0 1.5-.7 1.5-1.5v-9.9c0-.4-.1-.7-.3-1ZM11.3 28c-1 0-1.8-.8-1.8-1.8s.8-1.8 1.8-1.8 1.8.8 1.8 1.8-.9 1.8-1.8 1.8Zm26.1 0c-1 0-1.8-.8-1.8-1.8s.8-1.8 1.8-1.8 1.8.8 1.8 1.8-.9 1.8-1.8 1.8Z"></path>
      <path d="M19.4 9.6c.8 0 1.5-.7 1.5-1.5s-.7-1.5-1.5-1.5H4.8c-.8 0-1.5.7-1.5 1.5S4 9.6 4.8 9.6h14.6ZM17.7 14.7c0-.8-.7-1.5-1.5-1.5H1.5c-.8 0-1.5.7-1.5 1.5s.7 1.5 1.5 1.5h14.7c.8 0 1.5-.7 1.5-1.5Z"></path>
    </g>
    <defs>
      <clipPath id="b">
        <path fill="#fff" d="M0 0h47v31H0z"></path>
      </clipPath>
    </defs>
  </symbol>
  <symbol fill="currentcolor" viewBox="0 0 2 12" id="info">
      <path d="M2 0H0v2h2V0ZM2 4H0v8h2V4Z"></path>
  </symbol>
  <symbol fill="none" viewBox="0 0 16 3" id="minus">
    <path d="M16 .2H0v2h16v-2Z" fill="#000"></path>
  </symbol>
  <symbol fill="none" viewBox="0 0 16 16" id="search">
    <path d="m15.7 14.3-3.1-3.1C13.5 10 14 8.6 14 7c0-3.9-3.1-7-7-7S0 3.1 0 7s3.1 7 7 7c1.6 0 3-.5 4.2-1.4l3.1 3.1c.2.2.4.3.7.3.6 0 1-.4 1-1 0-.2-.1-.5-.3-.7ZM2 7c0-2.8 2.2-5 5-5s5 2.2 5 5-2.2 5-5 5-5-2.2-5-5Z" fill="#000"></path>
  </symbol>
  <symbol fill="currentcolor" viewBox="0 0 12 10" id="sort">
    <path d="m6 0 5.5 10H.5"></path>
  </symbol>
  <symbol fill="currentcolor" viewBox="0 0 20 60" id="slider-toogle">
    <path d="M0 0h3.5L20 30 3.5 60H0l16.2-30L0 0Z"/>
  </symbol>
</svg>
