<svg xmlns="http://www.w3.org/2000/svg">
  <symbol fill="currentcolor" viewBox="0 0 14 12" id="telegram">
    <path d="M12.44.07.62 4.63c-.8.33-.8.78-.14.98l3.03.94 7.02-4.43c.33-.2.64-.09.39.13l-5.7 5.13-.2 3.13c.3 0 .44-.14.61-.3l1.48-1.44 3.06 2.27c.57.31.97.15 1.12-.53l2-9.48c.21-.83-.3-1.2-.85-.96Z"></path>
  </symbol>
  <symbol fill="currentcolor" viewBox="0 0 15 15" id="twiter">
    <path d="M9.7.16c1.5-.5 2.6.3 3.2 1.1.5-.2 1.1-.4 1.7-.6 0 .8-.5 1.4-.8 1.6.7.2 1.2-.4 1.2-.4-.1.9-.9 1.7-1.4 1.9-.2 6.3-2.8 10.4-8.9 10.3h-.4c-.3 0-3.7-.4-4.3-1.8 2 .2 3.4-.4 4.1-1.1-.8-.3-2.4-.4-2.6-2.8.3.2.5.3 1.1.2-1.1-.8-2.3-1.5-2.2-3.5.3.3.9.5 1.2.4C1 5.26-.2 2.36.8.86c1.6 1.7 3.3 3.4 6.3 3.5.2-2.1 1-3.5 2.6-4.2Z"></path>
  </symbol>
  <symbol fill="currentcolor" viewBox="0 0 16 11" id="youtube">
    <g clip-path="url(#a)">
      <path d="M15.67 1.67c-.1-.32-.27-.61-.51-.84-.25-.24-.56-.41-.9-.5C13.01 0 8 0 8 0 5.9-.02 3.8.08 1.74.32 1.4.4 1.1.58.84.82c-.24.24-.42.53-.51.85A19.4 19.4 0 0 0 0 5.34C0 6.56.1 7.79.33 9c.09.32.27.61.51.85.25.23.56.4.9.5 1.27.32 6.26.32 6.26.32 2.09.02 4.18-.08 6.26-.31.34-.09.65-.26.9-.5.24-.23.42-.52.5-.84.24-1.21.35-2.44.34-3.67.02-1.23-.1-2.46-.33-3.68ZM6.4 7.62V3.05l4.18 2.29L6.4 7.62Z"></path>
    </g>
    <defs>
      <clipPath id="a">
        <path d="M0 0h16v11H0z"></path>
      </clipPath>
    </defs>
  </symbol>
</svg>
